<?xml version="1.0" standalone="no"?>
<!DOCTYPE svg PUBLIC "-//W3C//DTD SVG 20010904//EN"
 "http://www.w3.org/TR/2001/REC-SVG-20010904/DTD/svg10.dtd">
<svg version="1.0" xmlns="http://www.w3.org/2000/svg"
 width="50.000000pt" height="50.000000pt" viewBox="0 0 50.000000 50.000000"
 preserveAspectRatio="xMidYMid meet">

<g transform="translate(0.000000,50.000000) scale(0.100000,-0.100000)"
fill="#000000" stroke="none">
<path d="M237 474 c-4 -4 -7 -16 -7 -26 0 -17 -2 -18 -30 -3 -32 16 -115 20
-124 6 -4 -5 -2 -11 4 -13 6 -2 -5 -41 -25 -92 -34 -83 -35 -90 -20 -112 29
-44 101 -44 130 0 15 22 14 29 -20 112 -19 48 -35 89 -35 91 0 10 67 0 91 -14
l29 -17 0 -163 c0 -156 1 -163 20 -163 19 0 20 7 20 160 l0 160 35 0 c34 0 85
-18 85 -30 0 -3 -16 -46 -35 -94 -34 -83 -35 -90 -20 -112 29 -44 101 -44 130
0 15 22 14 29 -19 110 -19 47 -30 86 -25 86 5 0 9 4 9 8 0 15 -90 52 -125 52
-29 0 -34 4 -37 27 -3 26 -18 39 -31 27z m-105 -149 l26 -65 -58 0 -58 0 26
65 c14 36 28 65 32 65 4 0 18 -29 32 -65z m300 -70 l26 -65 -58 0 -58 0 26 65
c14 36 28 65 32 65 4 0 18 -29 32 -65z"/>
<path d="M137 54 c-4 -4 -7 -13 -7 -21 0 -10 27 -13 121 -13 109 0 120 2 117
18 -3 15 -18 17 -114 20 -60 1 -113 -1 -117 -4z"/>
</g>
</svg>
