<?xml version="1.0" standalone="no"?>
<!DOCTYPE svg PUBLIC "-//W3C//DTD SVG 20010904//EN"
 "http://www.w3.org/TR/2001/REC-SVG-20010904/DTD/svg10.dtd">
<svg version="1.0" xmlns="http://www.w3.org/2000/svg"
 width="50.000000pt" height="50.000000pt" viewBox="0 0 50.000000 50.000000"
 preserveAspectRatio="xMidYMid meet">

<g transform="translate(0.000000,50.000000) scale(0.100000,-0.100000)"
fill="#000000" stroke="none">
<path d="M170 458 c-59 -30 -80 -70 -91 -170 -9 -73 -8 -83 10 -102 10 -12 28
-39 39 -62 28 -56 85 -104 122 -104 19 0 42 11 62 30 37 33 21 41 -19 10 -51
-40 -100 -15 -146 77 -14 27 -33 55 -41 62 -24 20 -19 34 9 27 23 -6 25 -4 25
33 0 38 1 39 47 50 25 7 59 19 74 26 25 14 31 13 63 -8 31 -20 35 -27 36 -66
0 -34 3 -42 15 -37 21 8 19 -17 -5 -56 -11 -18 -20 -36 -20 -40 0 -15 28 4 38
25 6 12 11 16 11 10 2 -38 -78 -70 -106 -42 -6 6 -23 9 -39 7 -23 -2 -29 -8
-29 -28 0 -20 6 -26 29 -28 16 -2 33 1 39 7 6 6 26 11 44 11 38 0 83 37 83 68
0 11 7 22 15 26 19 7 21 82 1 93 -7 4 -16 30 -18 57 -7 63 -34 97 -91 117 -26
8 -50 19 -54 22 -13 14 -60 7 -103 -15z m94 -7 c3 -4 23 -11 45 -15 66 -10
106 -87 83 -159 l-10 -32 -1 38 c-1 20 -5 37 -11 37 -5 0 -25 14 -44 31 l-36
31 -26 -21 c-14 -11 -53 -26 -85 -33 -58 -12 -59 -13 -59 -45 0 -18 -4 -33
-10 -33 -15 0 -12 97 4 128 8 15 23 35 34 45 31 29 105 46 116 28z m166 -221
c0 -16 -4 -30 -10 -30 -5 0 -10 14 -10 30 0 17 5 30 10 30 6 0 10 -13 10 -30z
m-150 -130 c0 -5 -9 -10 -20 -10 -11 0 -20 5 -20 10 0 6 9 10 20 10 11 0 20
-4 20 -10z"/>
</g>
</svg>
