<?xml version="1.0" standalone="no"?>
<!DOCTYPE svg PUBLIC "-//W3C//DTD SVG 20010904//EN"
 "http://www.w3.org/TR/2001/REC-SVG-20010904/DTD/svg10.dtd">
<svg version="1.0" xmlns="http://www.w3.org/2000/svg"
 width="50.000000pt" height="50.000000pt" viewBox="0 0 50.000000 50.000000"
 preserveAspectRatio="xMidYMid meet">

<g transform="translate(0.000000,50.000000) scale(0.100000,-0.100000)"
fill="#000000" stroke="none">
<path d="M130 404 c-105 -77 -134 -104 -114 -104 4 0 56 36 116 80 60 44 113
80 118 80 5 0 58 -36 118 -80 108 -79 122 -88 122 -72 0 8 -232 183 -241 182
-2 -1 -56 -39 -119 -86z"/>
<path d="M106 334 c-20 -20 -20 -48 0 -68 30 -31 84 -9 84 34 0 24 -26 50 -50
50 -10 0 -26 -7 -34 -16z m59 -34 c0 -18 -6 -26 -23 -28 -13 -2 -25 3 -28 12
-10 26 4 48 28 44 17 -2 23 -10 23 -28z"/>
<path d="M316 334 c-31 -30 -9 -84 34 -84 24 0 50 26 50 50 0 24 -26 50 -50
50 -10 0 -26 -7 -34 -16z m59 -34 c0 -18 -6 -26 -23 -28 -24 -4 -38 18 -28 44
3 9 15 14 28 12 17 -2 23 -10 23 -28z"/>
<path d="M57 222 c-13 -14 -17 -37 -17 -93 0 -68 2 -78 25 -97 14 -12 27 -22
30 -22 3 0 5 36 5 80 0 47 -4 80 -10 80 -6 0 -10 -27 -10 -60 0 -33 -4 -60
-10 -60 -6 0 -10 31 -10 74 0 92 7 100 95 94 43 -3 64 0 62 7 -2 5 -35 11 -73
13 -58 2 -73 0 -87 -16z"/>
<path d="M290 225 c-10 -12 -5 -13 39 -8 63 7 75 -2 96 -72 8 -30 18 -61 21
-70 3 -8 2 -15 -4 -15 -5 0 -13 11 -16 25 -12 48 -26 76 -35 70 -6 -3 -1 -32
11 -68 21 -62 38 -93 38 -68 0 8 8 19 17 26 17 12 16 17 -6 87 -13 40 -30 81
-39 91 -19 22 -104 24 -122 2z"/>
<path d="M220 195 c-26 -32 13 -81 48 -59 22 14 27 41 12 59 -16 19 -44 19
-60 0z m46 -16 c10 -17 -13 -36 -27 -22 -12 12 -4 33 11 33 5 0 12 -5 16 -11z"/>
<path d="M192 108 c-14 -14 -16 -98 -3 -98 6 0 11 19 13 43 l3 42 45 0 45 0 3
-42 c2 -24 7 -43 13 -43 13 0 11 84 -3 98 -16 16 -100 16 -116 0z"/>
</g>
</svg>
