<?xml version="1.0" standalone="no"?>
<!DOCTYPE svg PUBLIC "-//W3C//DTD SVG 20010904//EN"
 "http://www.w3.org/TR/2001/REC-SVG-20010904/DTD/svg10.dtd">
<svg version="1.0" xmlns="http://www.w3.org/2000/svg"
 width="64.000000pt" height="64.000000pt" viewBox="0 0 64.000000 64.000000"
 preserveAspectRatio="xMidYMid meet">

<g transform="translate(0.000000,64.000000) scale(0.100000,-0.100000)"
fill="#000000" stroke="none">
<path d="M119 591 l-24 -19 0 -252 0 -252 24 -19 c21 -17 41 -19 201 -19 235
0 225 -8 225 167 0 107 -2 128 -15 128 -12 0 -16 -23 -20 -130 l-5 -130 -185
0 -185 0 0 255 0 255 93 3 c73 2 92 6 92 17 0 12 -18 15 -89 15 -73 0 -93 -3
-112 -19z"/>
<path d="M377 603 c-4 -3 -7 -51 -7 -105 0 -110 9 -125 61 -96 24 14 30 14 46
2 28 -21 60 -17 67 9 10 36 7 157 -4 178 -9 16 -22 19 -84 19 -40 0 -76 -3
-79 -7z m133 -104 l0 -80 -28 17 c-27 15 -31 15 -55 -1 l-27 -17 0 81 0 81 55
0 55 0 0 -81z"/>
</g>
</svg>
