<?xml version="1.0" standalone="no"?>
<!DOCTYPE svg PUBLIC "-//W3C//DTD SVG 20010904//EN"
 "http://www.w3.org/TR/2001/REC-SVG-20010904/DTD/svg10.dtd">
<svg version="1.0" xmlns="http://www.w3.org/2000/svg"
 width="50.000000pt" height="50.000000pt" viewBox="0 0 50.000000 50.000000"
 preserveAspectRatio="xMidYMid meet">

<g transform="translate(0.000000,50.000000) scale(0.100000,-0.100000)"
fill="#000000" stroke="none">
<path d="M310 405 c-14 -7 -37 -11 -52 -8 -18 3 -38 -1 -54 -12 -20 -13 -38
-16 -73 -11 -42 5 -44 4 -27 -9 11 -8 26 -15 34 -15 12 0 12 -4 -2 -19 -21
-23 -18 -49 6 -65 13 -8 24 -5 48 12 17 13 37 22 45 20 23 -5 117 -130 106
-141 -7 -7 -15 -6 -26 3 -13 11 -15 9 -15 -14 0 -26 -13 -35 -25 -16 -12 19
-26 10 -20 -11 7 -20 4 -21 -20 -15 -22 6 -26 4 -22 -8 8 -21 -10 -31 -28 -16
-11 9 -12 17 -5 30 10 18 3 29 -81 128 -13 15 -26 21 -36 18 -9 -4 -24 1 -34
10 -11 10 -19 12 -19 6 0 -6 5 -14 10 -17 6 -3 10 -17 10 -31 0 -14 7 -27 15
-30 8 -4 15 -12 15 -20 0 -8 4 -14 9 -14 5 0 19 -16 31 -35 12 -19 28 -35 36
-35 8 0 23 -9 34 -20 24 -24 43 -25 60 -5 7 8 19 15 27 15 7 0 16 7 19 15 4 8
10 13 14 10 5 -3 12 0 15 5 4 6 18 16 32 21 14 5 27 18 30 28 3 11 32 36 64
56 57 35 59 38 46 58 -8 12 -29 45 -46 74 l-32 52 -66 -40 c-43 -26 -73 -39
-87 -35 -13 3 -32 -4 -54 -21 -24 -18 -37 -22 -45 -14 -24 24 73 94 120 85 20
-4 36 0 53 14 31 25 24 35 -10 17z m119 -91 c27 -46 31 -58 20 -65 -84 -50
-102 -60 -91 -48 37 40 -4 106 -59 95 -18 -3 -30 -3 -26 0 9 9 110 72 117 73
3 1 20 -24 39 -55z m-91 -46 c14 -14 16 -48 3 -48 -11 0 -41 39 -41 52 0 12
25 9 38 -4z m-258 -43 c0 -8 -7 -15 -15 -15 -26 0 -18 20 13 29 1 1 2 -6 2
-14z m28 -37 c-6 -18 -28 -21 -28 -4 0 9 7 16 16 16 9 0 14 -5 12 -12z m32
-27 c0 -12 -20 -25 -27 -18 -7 7 6 27 18 27 5 0 9 -4 9 -9z m25 -42 c-4 -5
-13 -9 -22 -9 -13 0 -13 3 -3 15 13 15 35 11 25 -6z"/>
<path d="M385 301 c-6 -11 9 -23 19 -14 9 9 7 23 -3 23 -6 0 -12 -4 -16 -9z"/>
</g>
</svg>
