<?xml version="1.0" standalone="no"?>
<!DOCTYPE svg PUBLIC "-//W3C//DTD SVG 20010904//EN"
 "http://www.w3.org/TR/2001/REC-SVG-20010904/DTD/svg10.dtd">
<svg version="1.0" xmlns="http://www.w3.org/2000/svg"
 width="300.000000pt" height="300.000000pt" viewBox="0 0 300.000000 300.000000"
 preserveAspectRatio="xMidYMid meet">

<g transform="translate(0.000000,300.000000) scale(0.100000,-0.100000)"
fill="#000000" stroke="none">
<path d="M774 1110 c-12 -5 -25 -13 -29 -19 -4 -8 2 -7 19 0 48 22 95 -11 117
-80 7 -23 7 -22 8 11 2 63 -61 111 -115 88z"/>
<path d="M1033 1113 c-34 -6 -83 -68 -83 -104 0 -36 23 -84 45 -93 50 -19 125
14 125 54 0 10 6 21 13 23 6 3 -4 5 -23 5 -19 0 -29 -2 -22 -5 6 -2 12 -16 12
-29 0 -56 -102 -46 -129 12 -17 37 -14 60 13 91 19 22 32 28 65 28 26 0 46 -6
51 -15 8 -12 10 -11 10 6 0 19 -29 38 -50 33 -3 -1 -15 -4 -27 -6z"/>
<path d="M1274 1110 c-12 -5 -25 -13 -29 -19 -4 -8 2 -7 19 0 48 22 95 -11
117 -80 7 -23 7 -22 8 11 2 63 -61 111 -115 88z"/>
<path d="M508 1016 c3 -84 1 -95 -15 -99 -10 -3 18 -4 61 -4 61 2 81 6 84 17
4 13 3 13 -11 2 -9 -8 -33 -12 -59 -10 l-43 3 0 93 c0 55 -4 92 -10 92 -6 0
-9 -36 -7 -94z"/>
<path d="M1581 1093 c8 -10 19 -22 25 -28 6 -5 33 -39 59 -75 27 -36 52 -69
56 -74 4 -5 9 37 11 93 2 63 -1 101 -7 101 -6 0 -9 -20 -7 -48 2 -27 2 -62 0
-78 -3 -28 -5 -26 -61 49 -32 42 -65 77 -74 77 -13 0 -14 -2 -2 -17z"/>
<path d="M1900 1091 c-12 -24 -13 -42 -1 -22 7 11 13 5 25 -24 9 -20 16 -39
16 -41 0 -2 -18 -4 -40 -4 -22 0 -40 -3 -40 -8 0 -4 19 -6 43 -4 40 3 43 2 54
-29 10 -26 10 -35 0 -41 -7 -4 2 -7 23 -7 19 0 30 3 23 5 -6 3 -28 48 -48 100
-20 52 -38 94 -40 94 -3 0 -9 -9 -15 -19z"/>
<path d="M2098 1078 c4 -25 7 -29 11 -15 5 14 16 -6 40 -70 26 -68 36 -83 41
-68 4 11 4 22 1 25 -4 3 -20 40 -36 83 -20 52 -35 77 -46 77 -12 0 -14 -7 -11
-32z"/>
<path d="M2246 1094 c-8 -21 -8 -26 3 -20 5 3 12 -29 16 -70 5 -59 4 -79 -7
-85 -8 -6 -1 -9 22 -9 24 0 31 3 21 9 -9 6 -15 38 -19 100 -3 64 -9 91 -17 91
-7 0 -16 -7 -19 -16z"/>
<path d="M2388 1019 c3 -68 0 -94 -10 -100 -8 -5 19 -9 65 -9 42 0 77 4 77 8
0 5 -25 7 -55 4 l-55 -4 0 46 0 46 40 0 c22 0 40 3 40 8 0 4 -18 6 -40 4 l-40
-4 0 41 0 41 43 0 c24 0 49 -6 56 -12 11 -11 13 -10 9 2 -3 11 -22 16 -69 18
l-64 3 3 -92z"/>
<path d="M701 1002 c-1 -33 5 -48 24 -67 32 -33 85 -34 117 -2 13 12 17 17 8
11 -29 -21 -51 -24 -84 -10 -31 13 -48 39 -59 91 -3 11 -5 1 -6 -23z"/>
<path d="M1201 1002 c-1 -33 5 -48 24 -67 32 -33 85 -34 117 -2 13 12 17 17 8
11 -29 -21 -51 -24 -84 -10 -31 13 -48 39 -59 91 -3 11 -5 1 -6 -23z"/>
<path d="M2092 965 c0 -16 2 -22 5 -12 2 9 2 23 0 30 -3 6 -5 -1 -5 -18z"/>
<path d="M1569 919 c-10 -6 -4 -9 19 -9 17 0 32 2 32 4 0 9 -39 13 -51 5z"/>
<path d="M2075 919 c-16 -6 -14 -8 13 -8 33 -1 41 4 20 12 -7 2 -22 1 -33 -4z"/>
<path d="M1828 913 c6 -2 18 -2 25 0 6 3 1 5 -13 5 -14 0 -19 -2 -12 -5z"/>
</g>
</svg>
