<?xml version="1.0" standalone="no"?>
<!DOCTYPE svg PUBLIC "-//W3C//DTD SVG 20010904//EN"
 "http://www.w3.org/TR/2001/REC-SVG-20010904/DTD/svg10.dtd">
<svg version="1.0" xmlns="http://www.w3.org/2000/svg"
 width="500.000000pt" height="500.000000pt" viewBox="0 0 500.000000 500.000000"
 preserveAspectRatio="xMidYMid meet">

<g transform="translate(0.000000,500.000000) scale(0.100000,-0.100000)"
fill="#000000" stroke="none">
<path d="M2364 3595 c-14 -21 -14 -30 -4 -54 6 -16 18 -32 25 -35 10 -3 9 2
-2 25 -11 23 -12 37 -4 59 12 37 7 38 -15 5z"/>
<path d="M2610 3604 c0 -30 23 -104 32 -104 5 0 7 8 4 18 -3 9 -10 36 -16 60
-11 43 -20 55 -20 26z"/>
<path d="M2156 3562 c16 -15 89 -68 102 -76 6 -4 12 -3 12 3 0 12 -94 81 -111
81 -8 0 -9 -3 -3 -8z"/>
<path d="M2888 3515 c2 -24 -1 -52 -7 -64 -7 -13 -8 -21 -2 -21 27 0 42 114
16 124 -6 2 -9 -14 -7 -39z"/>
<path d="M2443 3530 c-1 -11 2 -18 8 -15 11 7 12 35 1 35 -4 0 -8 -9 -9 -20z"/>
<path d="M1986 3501 c-9 -13 39 -111 50 -103 5 4 -3 30 -18 60 -14 29 -29 48
-32 43z"/>
<path d="M1861 3401 c26 -21 35 -20 26 4 -4 8 -16 15 -28 15 -21 0 -21 0 2
-19z"/>
<path d="M1810 3395 c0 -14 68 -104 73 -98 4 3 0 17 -9 30 l-15 24 48 -6 c37
-5 44 -4 30 5 -9 6 -33 12 -53 13 -20 2 -42 10 -49 20 -12 16 -25 23 -25 12z"/>
<path d="M3160 3391 c0 -5 -13 -25 -30 -46 -16 -20 -27 -42 -24 -47 3 -5 13 1
22 14 8 13 26 35 39 49 20 22 22 27 9 32 -9 4 -16 3 -16 -2z"/>
<path d="M3233 3264 c-43 -44 -48 -71 -5 -32 l25 23 -7 -42 c-3 -23 -2 -44 3
-48 5 -3 11 9 13 27 2 25 8 33 22 33 27 0 45 31 27 47 -8 7 -11 8 -8 2 9 -16
-19 -38 -39 -30 -15 6 -15 9 5 30 40 42 8 33 -36 -10z"/>
<path d="M1690 3272 c0 -12 101 -52 113 -45 5 3 -16 16 -48 29 -66 27 -65 27
-65 16z"/>
<path d="M3382 3076 c-36 -50 -31 -72 5 -23 33 44 45 67 35 67 -5 0 -23 -20
-40 -44z"/>
<path d="M1540 3092 c0 -9 81 -32 111 -32 26 0 -5 18 -40 24 -22 3 -46 9 -55
12 -9 3 -16 2 -16 -4z"/>
<path d="M2450 3020 c-14 -26 -5 -57 21 -71 43 -23 92 44 57 79 -20 20 -66 15
-78 -8z"/>
<path d="M3485 2967 c-11 -6 -34 -16 -52 -22 -18 -6 -29 -15 -25 -21 4 -6 27
0 61 16 30 15 50 29 45 32 -5 4 -18 1 -29 -5z"/>
<path d="M2028 2939 c-21 -12 -24 -62 -4 -78 11 -10 3 -53 -51 -267 -60 -240
-63 -258 -48 -280 27 -42 63 -58 129 -58 42 0 72 6 93 19 62 36 62 38 -7 315
-55 222 -60 254 -47 267 20 20 76 4 187 -52 47 -23 104 -48 128 -55 l42 -13 0
-344 0 -343 -39 0 c-33 0 -40 -4 -43 -22 -2 -19 -10 -24 -45 -26 -35 -3 -43
-7 -43 -23 0 -18 9 -19 225 -19 216 0 225 1 225 19 0 16 -8 20 -42 23 -36 2
-44 7 -46 26 -3 19 -9 22 -53 22 l-49 0 0 345 0 344 41 11 c23 6 83 33 134 60
101 53 178 72 200 49 12 -12 4 -53 -50 -269 -58 -232 -63 -257 -49 -277 50
-77 231 -74 266 3 10 22 3 64 -51 280 -60 242 -63 256 -46 274 20 23 13 55
-17 71 -17 9 -28 8 -52 -4 -17 -9 -57 -23 -88 -32 -32 -8 -103 -38 -159 -65
-56 -28 -108 -50 -116 -50 -9 0 -13 14 -13 45 0 38 3 45 20 45 15 0 20 7 20
25 0 25 -1 25 -90 25 -89 0 -90 0 -90 -25 0 -20 5 -25 25 -25 23 0 25 -4 25
-45 0 -59 -13 -59 -136 5 -52 28 -120 57 -150 65 -30 8 -64 21 -76 29 -26 18
-36 19 -60 5z m22 -354 l0 -235 -61 0 c-53 0 -61 2 -57 18 3 9 29 115 59 235
29 119 55 217 56 217 2 0 3 -106 3 -235z m80 -12 c27 -111 50 -207 50 -213 0
-6 -25 -10 -60 -10 l-60 0 1 233 c0 148 4 225 9 212 6 -11 32 -111 60 -222z
m810 7 l0 -230 -61 0 c-45 0 -60 3 -57 13 3 6 29 110 59 230 29 119 55 217 56
217 2 0 3 -103 3 -230z m83 -12 l55 -218 -59 0 -59 0 1 228 c0 125 2 223 4
217 3 -5 29 -108 58 -227z"/>
<path d="M1460 2932 c0 -5 21 -18 47 -28 27 -11 51 -20 54 -22 4 -2 9 4 13 13
3 9 2 13 -4 10 -5 -3 -22 1 -37 8 -42 21 -73 30 -73 19z"/>
<path d="M1485 2783 c-54 -6 -76 -13 -71 -22 3 -5 26 -5 52 0 25 5 50 6 55 3
5 -3 9 2 9 10 0 9 -3 15 -7 15 -5 -1 -21 -4 -38 -6z"/>
<path d="M3522 2743 c-23 -15 -42 -33 -42 -40 0 -7 22 3 50 23 28 20 50 38 50
40 0 10 -19 2 -58 -23z"/>
<path d="M1637 1922 c-26 -18 -44 -38 -41 -43 3 -5 22 3 42 19 20 16 42 31 49
33 7 2 9 9 5 15 -5 7 -23 -1 -55 -24z"/>
<path d="M3327 1914 c-15 -8 -33 -12 -40 -8 -9 5 -9 3 1 -7 10 -11 18 -11 45
-1 28 11 34 10 45 -5 11 -15 12 -15 12 0 0 27 -31 37 -63 21z"/>
<path d="M3345 1850 c3 -5 8 -10 11 -10 2 0 4 5 4 10 0 6 -5 10 -11 10 -5 0
-7 -4 -4 -10z"/>
<path d="M1778 1820 c-11 -24 -15 -130 -6 -130 5 0 11 6 14 14 8 20 0 134 -8
116z"/>
<path d="M3198 1774 c22 -17 32 -34 32 -52 0 -21 2 -24 10 -12 5 8 10 21 10
28 0 19 -46 62 -67 62 -14 0 -10 -7 15 -26z"/>
<path d="M3120 1738 c0 -34 32 -68 63 -68 20 1 20 2 -6 16 -16 9 -35 30 -42
47 l-14 32 -1 -27z"/>
<path d="M1927 1652 c-19 -20 -23 -67 -7 -77 5 -3 7 0 4 9 -6 17 20 72 38 79
9 4 8 6 -3 6 -9 1 -23 -7 -32 -17z"/>
<path d="M2975 1650 c-3 -5 -1 -10 6 -10 7 0 9 -10 6 -25 -3 -21 1 -29 25 -41
16 -8 34 -12 40 -8 6 4 -2 12 -20 20 -23 9 -29 17 -26 31 6 22 -20 50 -31 33z"/>
<path d="M2930 1635 c0 -16 52 -105 61 -105 6 0 9 3 7 8 -30 69 -68 123 -68
97z"/>
<path d="M1972 1570 c-10 -17 -10 -20 2 -20 19 0 31 19 19 31 -5 5 -14 0 -21
-11z"/>
<path d="M2147 1537 c-19 -61 -20 -67 -9 -67 12 0 43 103 34 112 -5 5 -16 -16
-25 -45z"/>
<path d="M2748 1565 c-9 -10 25 -115 37 -115 9 0 7 16 -6 57 -21 61 -23 66
-31 58z"/>
<path d="M2366 1513 c58 -90 69 -104 72 -95 4 13 -67 122 -81 122 -5 0 -1 -12
9 -27z"/>
<path d="M2584 1514 c3 -9 6 -33 6 -55 0 -21 5 -39 10 -39 11 0 13 52 4 88 -4
12 -11 22 -16 22 -6 0 -7 -7 -4 -16z"/>
</g>
</svg>
